<?xml version="1.0" encoding="UTF-8"?>
<svg width="64px" height="64px" viewBox="0 0 64 64" version="1.1" xmlns="http://www.w3.org/2000/svg" xmlns:xlink="http://www.w3.org/1999/xlink">
    <g id="Page-1" stroke="none" stroke-width="1" fill="none" fill-rule="evenodd">
        <g id="Group" fill-rule="nonzero">
            <path d="M63.0354606,39.7415957 C58.7614606,56.8845957 41.3984606,67.3175957 24.2534606,63.0425957 C7.11546056,58.7685957 -3.31753944,41.4045957 0.958460562,24.2625957 C5.23046056,7.11759567 22.5934606,-3.31640433 39.7334606,0.957595675 C56.8774606,5.23159567 67.3094606,22.5975957 63.0354606,39.7415957 Z" id="Path" fill="#F7931A"></path>
            <path d="M17.4,33.216 L17.4,27.448 L20.256,27.448 L20.256,13.616 L32.408,13.616 C42.824,13.616 49.376,20.336 49.376,30.808 C49.376,41.28 42.824,48 32.408,48 L20.256,48 L20.256,33.216 L17.4,33.216 Z M27.368,41.672 L32.128,41.672 C38.68,41.672 42.264,37.472 42.264,30.808 C42.264,24.088 38.68,19.888 32.128,19.888 L27.368,19.888 L27.368,27.448 L33.136,27.448 L33.136,33.216 L27.368,33.216 L27.368,41.672 Z" id="Ä" fill="#FFFFFF"></path>
        </g>
    </g>
</svg>
