<?xml version="1.0" encoding="UTF-8"?>
<svg width="677px" height="267px" viewBox="0 0 677 267" version="1.1" xmlns="http://www.w3.org/2000/svg" xmlns:xlink="http://www.w3.org/1999/xlink">
    <!-- Generator: Sketch 55.2 (78181) - https://sketchapp.com -->
    <title>Artboard</title>
    <desc>Created with Sketch.</desc>
    <defs>
        <radialGradient cx="50.019674%" cy="49.956099%" fx="50.019674%" fy="49.956099%" r="54.8076214%" gradientTransform="translate(0.500197,0.499561),scale(0.830900,1.000000),translate(-0.500197,-0.499561)" id="radialGradient-1">
            <stop stop-color="#FFFFFF" stop-opacity="0.922421329" offset="0%"></stop>
            <stop stop-color="#FDAC00" stop-opacity="0.210336538" offset="61.077386%"></stop>
            <stop stop-color="#FD9300" stop-opacity="0" offset="100%"></stop>
        </radialGradient>
        <radialGradient cx="50.019674%" cy="49.956099%" fx="50.019674%" fy="49.956099%" r="46.0597891%" gradientTransform="translate(0.500197,0.499561),scale(0.988708,1.000000),translate(-0.500197,-0.499561)" id="radialGradient-2">
            <stop stop-color="#FFFFFF" stop-opacity="0.922421329" offset="0%"></stop>
            <stop stop-color="#FDAC00" stop-opacity="0.210336538" offset="61.077386%"></stop>
            <stop stop-color="#FD9300" stop-opacity="0" offset="100%"></stop>
        </radialGradient>
    </defs>
    <g id="Artboard" stroke="none" stroke-width="1" fill="none" fill-rule="evenodd">
        <g id="logo" transform="translate(0.000000, -1.000000)" fill-rule="nonzero">
            <g id="text" transform="translate(0.000000, 121.000000)">
                <g id="Group" transform="translate(212.000000, 111.000000)" fill="#01AFEF">
                    <polygon id="Path" points="9.7 9.6 3.3 0.2 3.3 0.1 0.9 0.1 0.9 18.3 3.3 18.3 3.3 4.4 9.5 13.4 9.8 13.4 16 4.4 16 18.3 18.4 18.3 18.4 0.1 16 0.1"></polygon>
                    <rect id="Rectangle" x="25.8" y="0.1" width="2.4" height="18.3"></rect>
                    <polygon id="Path" points="34.3 2.4 40.3 2.4 40.3 18.3 42.7 18.3 42.7 2.4 48.7 2.4 48.7 0.1 34.3 0.1"></polygon>
                    <path d="M71.2,0.1 L64.8,0.1 L64.8,18.4 L71.2,18.4 C76.8,18.4 80.9,14.6 80.9,9.2 C80.9,3.9 76.8,0.1 71.2,0.1 Z M71.2,16.1 L67.2,16.1 L67.2,2.4 L71.2,2.4 C75.4,2.4 78.4,5.2 78.4,9.3 C78.4,13.3 75.4,16.1 71.2,16.1 Z" id="Shape"></path>
                    <polygon id="Path" points="89.7 10.3 99.4 10.3 99.4 8 89.7 8 89.7 2.3 100.6 2.3 100.6 0.1 87.3 0.1 87.3 18.3 100.7 18.3 100.7 16.1 89.7 16.1"></polygon>
                    <path d="M121.4,5.6 C121.4,4.2 120.9,2.9 120,1.9 C118.8,0.7 117,0.1 114.8,0.1 L106.9,0.1 L106.9,18.4 L109.3,18.4 L109.3,11.5 L114.1,11.5 L119.3,18.4 L122.3,18.4 L116.8,11 C119.7,10.3 121.4,8.4 121.4,5.6 Z M109.3,2.4 L114.6,2.4 C117.3,2.4 119,3.6 119,5.8 C119,7.9 117.3,9.3 114.6,9.3 L109.3,9.3 L109.3,2.4 Z" id="Shape"></path>
                    <path d="M149.4,8.9 C150.6,8.2 151.9,7 151.9,4.8 C151.9,3.6 151.5,2.6 150.7,1.8 C149.6,0.7 147.9,0.2 145.9,0.2 L138.1,0.2 L138.1,18.5 L146.2,18.5 C150.3,18.5 152.9,16.6 152.9,13.4 C152.9,11.2 151.7,9.7 149.4,8.9 Z M145.7,2.3 C148,2.3 149.4,3.3 149.4,5 C149.4,6.9 147.9,8 145.5,8 L140.4,8 L140.4,2.3 L145.7,2.3 Z M140.5,10.2 L145.9,10.2 C148.8,10.2 150.4,11.2 150.4,13.1 C150.4,15 148.8,16.1 146.2,16.1 L140.4,16.1 L140.4,10.2 L140.5,10.2 Z" id="Shape"></path>
                    <path d="M173.6,5.6 C173.6,4.2 173.1,2.9 172.2,1.9 C171,0.7 169.2,0.1 167,0.1 L159,0.1 L159,18.4 L161.4,18.4 L161.4,11.5 L166.2,11.5 L171.3,18.3 L171.4,18.4 L174.4,18.4 L168.9,11 C171.9,10.3 173.6,8.4 173.6,5.6 Z M161.5,2.4 L166.8,2.4 C169.5,2.4 171.2,3.6 171.2,5.8 C171.2,7.9 169.5,9.3 166.8,9.3 L161.5,9.3 L161.5,2.4 Z" id="Shape"></path>
                    <rect id="Rectangle" x="180.2" y="0.1" width="2.4" height="18.3"></rect>
                    <polygon id="Path" points="192.4 0.1 190 0.1 190 18.3 202.4 18.3 202.4 16.1 192.4 16.1"></polygon>
                    <polygon id="Path" points="210.7 0.1 208.3 0.1 208.3 18.3 220.8 18.3 220.8 16.1 210.7 16.1"></polygon>
                    <polygon id="Path" points="229 16.1 229 10.3 238.8 10.3 238.8 8 229 8 229 2.3 239.9 2.3 239.9 0.1 226.6 0.1 226.6 18.3 240.1 18.3 240.1 16.1"></polygon>
                </g>
                <g id="Group" fill="#FFFFFF">
                    <path d="M225,58.1 C225.2,62.9 224.3,68.9 222,76.3 C219.1,81.2 217.1,84.5 216,86.3 C213.5,89.9 210.7,92.9 207.6,95.3 C205.1,98.7 198.6,103.6 188.2,110.2 C187.4,110.2 186.5,110.6 185.4,111.4 C184.4,112.2 183.6,112.7 183.1,112.8 C180.9,114.3 175.6,116.4 167.4,119.1 L165.1,120.5 C164.9,120.5 162.1,121 156.7,122 C153.4,122.6 150.5,122.8 148,122.6 C146,122.8 143.5,122.5 140.3,121.9 C137.4,120.2 136,117.6 136,114.3 C136,113.2 136.1,111.9 136.4,110.2 C139,102.9 144.6,97.3 153.1,93.3 C156.1,92.6 158.5,92.8 160.6,93.8 C160.9,94.2 161.1,94.7 161.1,95.2 C161.1,95.6 160.9,96 160.6,96.4 C155.1,99.2 151.5,101.2 149.9,102.3 C146.2,105.1 144.6,108 145.1,111 C146.1,112.4 147.9,113.3 150.5,113.7 C152.8,113.8 155.1,113.9 157.4,114.1 C163.5,113.6 170.7,111.3 179.2,107.2 C181.2,107 183.5,106.1 185.8,104.6 C189.6,102.4 191.6,101.2 191.9,101 C192.3,100.4 193.2,99.7 194.6,98.7 C196,97.8 196.9,97 197.3,96.4 C205.5,89.6 210.7,82.8 212.9,76 C213.3,73.4 213.9,69.5 214.6,64.3 C213.7,60.7 212.8,57.1 211.9,53.6 C210.6,49.5 208.7,46.2 206.1,43.7 C205.1,42 203.5,40 201.2,37.7 C199.3,35.7 197.4,33.8 195.6,31.9 C191.7,29.2 186.8,26.5 181.1,23.9 C176,21.8 170.9,19.6 165.9,17.4 C148.1,12.2 130.2,9.7 112.1,9.7 C106.9,9.7 101.7,9.9 96.5,10.3 C76.9,11.9 61.2,14.7 49.2,18.5 C47.8,19.2 44.9,20.3 40.6,21.8 C36.9,23 34.2,24.3 32.4,25.7 C25.1,28.3 19.8,31.4 16.4,35 C16.3,35.6 16.3,36.2 16.4,37 C16.4,38.1 16.4,38.7 16.4,38.8 C16.4,39.6 16.1,40.3 15.5,40.9 C15,42.1 13.7,42.8 11.7,43 C9.2,43.2 7.6,43.5 7,44 C3.6,44.1 1.5,42.9 0.9,40.6 C2.3,33.2 10.1,26 24.4,18.9 C28.3,16.4 33.5,14 40.3,11.8 C46,10 51.6,8.2 57.3,6.4 C59.4,6.4 62.2,5.9 65.7,5 C69.1,4.1 71.8,3.5 73.6,3.5 C76.8,2.8 81.6,2.2 87.9,1.7 C94.3,1.1 98.9,0.6 101.9,0.1 C103.3,0.3 104.8,0.5 106.4,0.5 C107.7,0.5 109.7,0.4 112.4,0.3 C115.1,0.2 117.1,0.1 118.5,0.1 C126.2,0.1 135.5,1 146.5,2.8 C157,4.6 166.1,6.8 173.9,9.3 C174.1,9.9 174.9,10.2 176.1,10.3 C177.7,10.5 178.6,10.6 178.8,10.7 C196.3,18.8 207.8,26.5 213.3,33.7 C217,36.8 219.8,40.7 221.7,45.4 C222.8,47.8 223.9,52.2 225,58.1 Z M129.8,75.8 C129.4,76.7 129.2,78.1 129.4,79.9 C129.6,81.7 129.4,83.1 129.1,83.9 C129.3,88.1 129.3,94.3 128.9,102.6 C125.9,106.1 123.2,107.7 120.9,107.3 C120,106.7 119.4,105.7 119.2,104.2 C119,103 118.9,101.7 118.7,100.5 C118.9,100 118.9,99.4 118.7,98.8 C118.7,97.9 118.7,97.3 118.7,97.1 C118.9,95.2 119,92.4 118.8,88.6 C118.6,84.8 118.6,82 118.7,80.2 C118.3,76.3 118.3,73.6 118.5,72.1 C118.4,71.3 118.4,69.9 118.2,68 C118.1,66.1 118,64.6 118,63.6 C118,61.2 118.4,59.2 119.1,57.4 C119.1,53.7 120.9,51 124.4,49.2 C125.2,48.5 126.1,48.2 127.1,48.2 C128.2,48.2 129.1,48.7 129.6,49.7 C129.9,53 130,57.3 130,62.8 C129.8,69.1 129.7,73.5 129.8,75.8 Z" id="Shape"></path>
                    <path d="M291.3,94.4 C289.7,95.1 288.2,95.9 286.8,96.6 C285,97.4 283.5,97.8 282.3,97.8 C276.2,98.5 270.8,98.9 266.2,98.9 C253,98.9 242.5,95.9 234.6,89.9 C233.8,88.4 233,86.9 232.1,85.5 C231.3,83.7 230.9,82.1 230.9,80.7 C230.9,79.7 231.1,78.7 231.4,77.7 C231.6,76 232.9,73.3 235.5,69.7 C236.7,69.8 238.4,69.1 240.5,67.8 C242.6,66.4 244.2,65.8 245.2,65.8 C246.1,65.8 247,66.1 247.9,66.8 C245.1,71.2 243.7,74.5 243.7,76.8 C243.7,80.5 245.2,84 248.1,87.3 C251.1,90.6 254.4,92.6 258.1,93.2 C261.5,94.4 265.1,94.9 268.9,94.9 C275.4,94.9 282.5,93.3 290.4,90.2 L291.3,94.4 Z M265.1,21.9 C262.4,23.7 259.1,24.6 255.1,24.6 C253.4,24.6 251.7,24.4 250.1,24 C249,22.7 248.4,21.1 248.4,19.3 C248.4,17.7 248.8,15.9 249.8,13.6 C252.9,8.5 256.4,6.2 260.2,6.7 C260.9,7.7 261.3,9.2 261.6,11.4 C261.8,13.9 262.1,15.5 262.3,16.2 C262.5,16.6 263.1,17.5 264.1,18.9 C265,19.9 265.3,20.9 265.1,21.9 Z" id="Shape"></path>
                    <path d="M348.2,98.6 C343.4,99.9 338.6,100.5 333.8,100.5 C326.7,100.5 320.8,99 316.1,95.9 C310.3,98.1 305.1,99.2 300.6,99.2 C296.6,99.2 293,98.3 289.9,96.5 C288.8,95.8 288.2,94.1 288.2,91.2 C288.2,87.7 289.2,84.3 291.1,81.1 C293.6,77.1 297.2,74.2 302,72.4 C306.3,70.8 310.6,69.9 314.8,69.9 C318.6,69.9 322,70.6 325.1,72 L327.2,75.6 C327.3,76.4 327.3,77.3 327.3,78.3 C327.3,79.1 327.3,80.3 327.3,81.9 C327.3,83.5 327.3,84.7 327.3,85.5 C327.3,90 329.1,93 332.7,94.4 C334.7,94.8 336.6,95 338.6,95 C341.2,95 344.4,94.6 348.2,93.9 C349.1,93.7 349.6,94.4 349.6,95.9 C349.5,97.5 349.1,98.4 348.2,98.6 Z M317.7,78.4 C316.8,76.2 314.2,75.1 309.8,75.1 C307.4,75.9 305.1,77.6 302.8,80 C300.8,84.4 299.8,87.1 299.8,88.4 C299.8,89.1 299.9,89.9 300.2,90.7 C300.9,92.9 302.5,94 305.2,94 C305.7,94 306.2,94 306.7,93.9 C308.4,93.2 309.8,91.8 310.8,90 C311.5,88.3 312.1,86.5 312.8,84.7 C313,83.8 313.8,82.8 315.4,81.8 C316.9,80.7 317.7,79.6 317.7,78.4 Z" id="Shape"></path>
                    <path d="M410.6,93.5 C403.2,96.5 396.5,97.9 390.6,97.9 C384.2,97.9 378.4,96.2 373.1,92.9 C371.3,92.6 369.2,93.2 367,94.7 C364.5,96.3 362.5,97.2 361.2,97.2 C359.7,97.4 358.5,97.6 357.4,97.6 C353.5,97.6 351,96.2 349.9,93.4 C349.7,91.7 349.6,90 349.4,88.2 C349.1,86.1 348.3,84.5 347.1,83.6 C346.2,83.5 345.4,83.4 344.8,83.1 C343.1,82.4 342,81.2 341.5,79.7 C347.7,78.5 353.6,78 359.1,78.3 C360.7,79 361.6,81.3 361.8,84.9 C362,88.3 362.7,89.9 363.9,89.9 C364.6,89.9 365.7,89.4 367.2,88.5 C371.5,83 376,80.3 380.6,80.3 C381.4,80.3 382.3,80.3 383.2,80.4 C384.1,81.4 384.9,83.8 385.5,87.5 C386.1,90.5 387.6,92.4 390,93.2 C391.3,93.4 392.6,93.4 393.9,93.4 C399.1,93.4 404.3,92.2 409.5,89.8 L410.6,93.5 Z" id="Path"></path>
                    <path d="M465.2,98.6 C460.4,99.9 455.6,100.5 450.8,100.5 C443.7,100.5 437.8,99 433.1,95.9 C427.3,98.1 422.1,99.2 417.6,99.2 C413.6,99.2 410,98.3 406.9,96.5 C405.8,95.8 405.2,94.1 405.2,91.2 C405.2,87.7 406.2,84.3 408.1,81.1 C410.6,77.1 414.2,74.2 419,72.4 C423.3,70.8 427.6,69.9 431.8,69.9 C435.6,69.9 439,70.6 442.1,72 L444.2,75.6 C444.3,76.4 444.3,77.3 444.3,78.3 C444.3,79.1 444.3,80.3 444.3,81.9 C444.3,83.5 444.3,84.7 444.3,85.5 C444.3,90 446.1,93 449.7,94.4 C451.7,94.8 453.6,95 455.6,95 C458.2,95 461.4,94.6 465.2,93.9 C466.1,93.7 466.6,94.4 466.6,95.9 C466.6,97.5 466.1,98.4 465.2,98.6 Z M434.7,78.4 C433.8,76.2 431.2,75.1 426.8,75.1 C424.4,75.9 422.1,77.6 419.8,80 C417.8,84.4 416.8,87.1 416.8,88.4 C416.8,89.1 416.9,89.9 417.2,90.7 C417.9,92.9 419.5,94 422.2,94 C422.7,94 423.2,94 423.7,93.9 C425.4,93.2 426.8,91.8 427.8,90 C428.5,88.3 429.1,86.5 429.8,84.7 C430,83.8 430.8,82.8 432.4,81.8 C433.9,80.7 434.7,79.6 434.7,78.4 Z" id="Shape"></path>
                </g>
            </g>
            <path d="M515.4,111.7 C517.5,110.6 519.7,109.9 522.1,109.5 C524.5,109.1 527,109.1 529.5,109.6 C530.7,109.9 532,110.2 533.2,110.8 C534.4,111.3 535.5,112 536.5,112.8 C538.5,114.3 540.1,116.2 541.5,118.2 C542.2,119.2 542.8,120.2 543.4,121.2 C544,122.2 544.5,123.2 545,124.2 C545.5,125.2 546,126.1 546.6,126.8 C547.2,127.5 548.1,127.8 549.1,128 C550.1,128.2 551.2,128.3 552.3,128.4 C553.4,128.5 554.5,128.5 555.6,128.5 C557.8,128.5 560.1,128.4 562.4,128.5 C571.5,128.9 580.5,130.6 589.2,133.3 C593.5,134.7 597.8,136.3 601.9,138.3 C606,140.3 609.9,142.7 613.2,145.8 C609.5,143.2 605.4,141.3 601.3,139.7 C597.2,138.1 592.9,136.8 588.6,135.6 C584.3,134.5 579.9,133.6 575.5,132.8 C571.1,132 566.7,131.4 562.3,131.1 C560.1,131 557.9,130.9 555.6,130.8 C553.3,130.7 551.1,130.6 548.7,130.2 C547.5,130 546.2,129.4 545.2,128.5 C544.2,127.6 543.6,126.5 543,125.6 C541.8,123.7 540.6,121.9 539.1,120.4 C537.7,118.8 536,117.5 534.3,116.6 C532.6,115.6 530.7,115.1 528.8,114.8 C524.9,114.3 520.7,114.8 516.2,114.8 L515.4,111.7 Z" id="Path" fill="#01AFEF"></path>
            <path d="M368.7,104.9 C368.9,103.7 369.2,102.6 369.5,101.5 C369,102.5 368.8,103.7 368.7,104.9 Z" id="Path" fill="#01AFEF"></path>
            <path d="M367.7,111.9 C368.7,109.3 368.6,107 368.8,104.8 C368.3,107.1 367.9,109.5 367.7,111.9 Z" id="Path" fill="#01AFEF"></path>
            <path d="M398.6,77.6 L405.6,85.8 C400.5,74.9 394.6,71.4 390.5,67.1 C388.6,64.4 387.4,62.3 387.6,61 C387.9,59.1 387.9,57.2 387.6,53.8 C387.2,55.5 386.8,56.6 386.3,57.1 C386.2,57.3 385.3,57.9 384.7,58.1 C384.9,58.9 384.9,59.1 384.8,59.7 C384.7,61.4 383.1,67.7 383.3,68.9 C383.6,70.2 384.2,75.5 382.9,77.8 C381.6,80.1 377.5,85.1 375.6,85.6 C375.5,85.6 375.3,85.7 375.2,85.7 C375.2,85.7 371.3,94.5 371,97.1 C371,97.1 371,97.1 371,97.1 C372.3,94 374.1,91.4 376.5,89.5 C377.1,89 377.7,88.5 378.3,88.1 C391.1,80.1 398.6,88.6 409.1,100.8 C406.4,88.7 405.1,86.2 398.6,77.6 L398.6,77.6 Z" id="Path" fill="#01AFEF"></path>
            <path d="M367.7,111.9 C367.7,111.9 367.7,111.9 367.7,111.9 C367.4,112.8 366.3,113.8 366.4,115.4 L351.2,87.5 C350.2,85.7 349.3,83.9 348.4,82.2 L348.4,82.1 C348,80.8 347.6,79.5 347.4,78.2 L347.4,78.2 L347.4,78.2 C346.4,73.7 346.3,69.6 345.6,65 C344.2,55.9 349.4,41.6 351.5,36.9 C353.7,32.2 358.6,29.8 362.5,29.2 C366.3,28.7 370.6,28.1 370.6,28.1 C370.6,28.1 370.4,27.6 374.8,31.2 C377.6,33.5 379.2,37.6 380,40.4 L380,40.4 C380.4,40.5 380.9,42.6 381.2,44.3 C382,44.2 382.6,44.2 383.1,44.2 C383.6,44.2 383.9,44 384.3,44.1 C384.6,44.1 384.9,44.1 385.1,44.1 C385.6,44.1 386,44.3 386.4,44.5 C385.6,40.6 384.4,37 383.1,34.6 C379.6,28.4 373.8,25.9 373.8,25.9 C373.8,25.9 370.5,15.2 353.4,21.5 C336.4,27.9 330.4,48.6 329.2,55.7 C328,62.8 327.1,85.7 325.4,102.9 C323.7,120.1 328.4,129.4 328.4,129.4 L330,124.2 L331.5,133.3 C331.5,133.3 332.5,118.4 333.8,114.1 C335,109.8 332.5,144.9 343.9,144.7 C347.7,144.7 352.5,145.1 357,145.7 C356.4,135.1 365.3,151.6 366.5,144.4 C367.3,139.3 367.8,128.5 367.1,119.6 C367.2,118.9 367.3,118.2 367.4,117.5 C367.3,115.6 367.5,113.7 367.7,111.9 Z" id="Path" fill="#01AFEF"></path>
            <path d="M560.1,51.6 L560.7,49.8 L563.2,47.6 L567.5,49 L567.8,49.5 C567.8,49.1 568.1,47.9 570.6,47.9 C571,47.9 571.4,48 571.7,48.1 C572,46.9 572.3,45.7 572.1,45.1 C571.6,43.6 571.1,42.4 567.8,42.8 C567.8,42.8 557.9,47 555.8,53.8 C553.8,60.6 556.7,63.3 558.9,67.9 C561.1,72.5 563.3,74.6 562.7,79.8 C562.1,84.7 559.3,92.6 561,96.1 C561.3,96.5 561.4,96.7 561.4,96.7 C561.2,96.5 561.1,96.3 561,96.1 C560.8,95.8 560.6,95.5 560.3,95.1 C560.9,96.6 561.6,98.1 562.5,98.3 C563.5,98.6 564.4,98.6 565.4,97.8 C563.6,96.2 562.5,93.8 562.5,90.7 C562.5,85.6 564.1,82.5 564.2,79.7 C564.4,75.7 562.1,69.1 559.4,65 C556.7,60.9 555.7,57.8 556.9,55.6 L560.1,51.6 Z" id="Path" fill="#FFAB00"></path>
            <path d="M567.8,42.9 C567.8,42.9 557.9,47.1 555.8,53.9 C553.8,60.7 556.7,63.4 558.9,68 C561.1,72.6 563.3,74.7 562.7,79.9 C562.1,85.1 558.9,93.8 561.4,96.9 C561.4,96.9 557.3,89.9 547.3,86.1 C537.3,82.3 536.3,81.5 536.3,81.5 C536.3,81.5 535.6,79.6 536.8,78.8 C536.8,78.8 552.7,84.8 554.6,84.9 C556.5,85 561.8,85.4 561.1,79.6 C560.4,73.8 555.4,72.1 551.4,66.9 C547.3,61.6 547.9,59.9 550.6,53.9 C553.3,47.9 561.3,44.1 562.1,43.9 C562.7,43.5 567.8,42.9 567.8,42.9 Z" id="Path" fill="#FFFFFF"></path>
            <path d="M564.4,52.9 C564.5,52.4 564.6,51.9 564.6,51.4 C564.6,50.9 564.7,50.4 564.6,50 C564.6,49.9 564.5,49.8 564.5,49.8 C564.5,49.8 564.4,49.7 564.3,49.6 L563.7,49.2 L562.5,48.4 L563.1,47.5 L564.3,48.5 L564.9,49 C565,49.1 565.1,49.1 565.2,49.4 C565.3,49.6 565.3,49.7 565.3,49.9 C565.4,50.5 565.3,51 565.1,51.5 C565,52 564.8,52.5 564.7,53 L564.4,52.9 Z" id="Path" fill="#01AFEF"></path>
            <path d="M565.8,47.7 C566.4,48.1 567,48.5 567.4,49 C567.9,49.5 568.2,50.3 568.1,51 C568,52.3 567.8,53.6 567.5,54.9 L567.3,54.9 C567.4,53.6 567.4,52.3 567.4,51.1 C567.4,50.5 567.1,50.1 566.7,49.6 C566.3,49.2 565.7,48.9 565.2,48.7 L565.8,47.7 Z" id="Path" fill="#01AFEF"></path>
            <path d="M570.3,55 C570.7,54.2 571.1,53.4 571.6,52.6 C572.1,51.9 572.8,51.1 573.7,50.7 L573.7,50.7 L573.3,51.3 C573.2,50 572.6,48.5 571.3,48.1 C570.7,47.9 569.9,47.9 569.2,48 C568.5,48.1 567.8,48.6 567.8,49.3 L567.6,49.3 C567.5,48.4 568.3,47.8 569.1,47.6 C569.9,47.4 570.7,47.3 571.5,47.5 C572.3,47.7 573,48.3 573.5,49 C574,49.7 574.3,50.4 574.4,51.3 L574.5,51.7 L574.1,51.9 L574.1,51.9 C573.4,52.1 572.8,52.7 572.3,53.3 C571.8,53.9 571.3,54.7 570.9,55.4 L570.3,55 Z" id="Path" fill="#01AFEF"></path>
            <path d="M555.3,51.9 C555.7,51.6 559,50.3 561.2,51.5 C563.4,52.7 570.3,57.5 570.3,57.5 C570.3,57.5 571.6,60.7 572.8,61.3 C572.8,61.3 565.2,56.4 562.5,55.7 C559.8,55 554.5,58.2 554.5,58.2 L555.3,51.9 Z" id="Path" fill="#FFFFFF"></path>
            <path d="M559.2,48.9 C559.2,48.9 564.9,46.9 567.2,49.5 C569.5,52.1 570.3,57.6 570.3,57.6 L570.9,56.2 C570.9,56.2 571.1,53.2 569.8,50.8 C568.5,48.4 567.2,46 562,46.3 C556.8,46.6 559.2,48.9 559.2,48.9 Z" id="Path" fill="#FFFFFF"></path>
            <path d="M564.3,79 C564.4,79.2 564.4,79.4 564.4,79.5 C564.4,79.7 564.3,79.8 564.3,80 L564.1,81 L563.8,83 C563.6,84.3 563.5,85.6 563.4,86.9 C563.3,89.5 563.3,92.2 564.1,94.4 C564.9,96.6 566.7,97.9 569.2,98.3 C571.6,98.7 574,99 576.5,97.9 C575.8,99.2 574.4,99.9 573.1,100.4 C571.7,100.8 570.2,100.8 568.8,100.6 C567.4,100.4 565.9,99.9 564.6,98.9 C563.4,97.9 562.5,96.5 562.1,95.1 C561.3,92.2 561.8,89.4 562.2,86.8 C562.4,85.5 562.7,84.2 563,82.9 L563.5,81 L563.8,80 C563.8,79.8 563.9,79.7 563.9,79.5 C564.1,79.3 564.2,79.2 564.3,79 Z" id="Path" fill="#01AFEF"></path>
            <path d="M578,67.7 C580.4,68.7 582.6,70.1 584.7,71.7 C585.7,72.5 586.7,73.5 587.5,74.5 L590,77.5 L599.8,89.6 C603.1,93.6 606.3,97.7 609.4,101.8 L611.8,104.9 C612.6,105.8 613.4,106.8 614.3,107.7 C616.1,109.5 617.9,111.3 619.8,113.1 C627.3,120.2 635.1,127 642.5,134.3 C646.2,137.9 649.9,141.6 653.4,145.4 C655.1,147.3 656.8,149.3 658.4,151.4 C660,153.5 661.5,155.7 662.3,158.1 C661.2,155.7 659.6,153.7 657.9,151.8 C656.2,149.9 654.4,148 652.5,146.2 C648.8,142.6 645,139.1 641.1,135.7 C633.3,128.9 625.5,122.1 617.7,115.2 C615.8,113.4 613.8,111.7 612,109.8 C611.1,108.9 610.2,107.9 609.3,106.8 L606.9,103.7 C603.8,99.6 600.7,95.4 597.7,91.2 L588.6,78.6 L586.3,75.4 C585.6,74.3 584.7,73.4 583.8,72.5 C582.1,70.7 580.1,69.2 578,67.7 Z" id="Path" fill="#01AFEF"></path>
            <path d="M579.1,96.6 L579.1,96.6 C579.2,96.7 579.3,96.8 579.4,96.9 C579.5,96.8 579.7,96.7 579.8,96.6 L579.1,96.6 Z" id="Path" fill="#00D0E8"></path>
            <path d="M562,78.1 C562,78.1 566,75.5 571.3,75.7 C571.3,75.7 573,69.6 573.9,68.3 C574.7,67 575.7,65 575.6,64.2 C575.5,63.3 575.3,62.6 575.3,62.6 L577.4,64.3 C577.4,64.3 577.9,65.4 577.1,66.8 C576.3,68.3 573.2,75.3 573.4,76.8 C573.6,78.3 579.8,96.7 579.5,96.8 C579.3,96.9 577.9,97.9 577.9,97.9 C577.9,97.9 572.2,79.8 571.7,78.2 C571.7,78.2 567.5,76.5 562.7,79.8 L562,80.4 L562,78.1 Z" id="Path" fill="#FFFFFF"></path>
            <path d="M583.7,35 C583.7,35 584.7,33.2 585.9,33.2 C587,33.2 586.3,33.2 586.3,33.2 C586.3,33.2 595.3,49.6 597,51.1 C598.7,52.6 600.2,54.6 603.4,53.6 C606.6,52.6 606.7,45.9 606.6,42.2 C606.5,38.5 602.4,27.3 605,23.5 C607.6,19.7 614.9,12.4 625.6,11 L629.7,13.1 L621.8,17.1 C621.8,17.1 625.5,19.2 626.1,21 L626.1,22.3 L623.6,25.8 L622.6,26.1 L622.7,25.5 C622.7,25.5 623.8,24.9 623.3,23.6 C622.9,22.3 620.6,20.2 616.7,20.8 L615.8,21.9 C615.8,21.9 619.7,25.4 620.8,26.9 C621.9,28.4 623.3,33.3 623.3,34.9 C623.3,36.5 623.3,36.5 623.3,36.5 C623.3,36.5 620.5,32.1 616.6,30 C612.6,27.9 611.5,27.8 611.5,27.8 C611.5,27.8 609.7,29.1 609.5,33.8 C609.3,38.5 609.9,47.6 609,50.5 C608,53.4 605.2,63.1 598.6,67.2 C598.6,67.2 597.2,68.9 596.4,67.2 C595.6,65.5 597,59.8 594.2,54.1 C591.3,48.2 583.7,35 583.7,35 Z" id="Path" fill="#000000" opacity="0.5"></path>
            <path d="M583.7,35 C583.7,35 584.7,33.2 585.9,33.2 C587,33.2 586.3,33.2 586.3,33.2 C586.3,33.2 595.3,49.6 597,51.1 C598.7,52.6 600.2,54.6 603.4,53.6 C606.6,52.6 606.7,45.9 606.6,42.2 C606.5,38.5 602.4,27.3 605,23.5 C607.6,19.7 614.9,12.4 625.6,11 L629.7,13.1 L621.8,17.1 C621.8,17.1 625.5,19.2 626.1,21 L626.1,22.3 L623.6,25.8 L622.6,26.1 L622.7,25.5 C622.7,25.5 623.8,24.9 623.3,23.6 C622.9,22.3 620.6,20.2 616.7,20.8 L615.8,21.9 C615.8,21.9 619.7,25.4 620.8,26.9 C621.9,28.4 623.3,33.3 623.3,34.9 C623.3,36.5 623.3,36.5 623.3,36.5 C623.3,36.5 620.5,32.1 616.6,30 C612.6,27.9 611.5,27.8 611.5,27.8 C611.5,27.8 609.7,29.1 609.5,33.8 C609.3,38.5 609.9,47.6 609,50.5 C608,53.4 605.2,63.1 598.6,67.2 C598.6,67.2 597.2,68.9 596.4,67.2 C595.6,65.5 597,59.8 594.2,54.1 C591.3,48.2 583.7,35 583.7,35 Z" id="Path" fill="#FFFFFF"></path>
            <path d="M602.4,44.8 C602.6,50 601.5,52.6 600.8,53.8 C601.5,54 602.4,54 603.4,53.7 C606.6,52.7 606.7,46 606.6,42.3 C606.5,38.6 602.4,27.4 605,23.6 C607.6,19.8 614.9,12.5 625.6,11.1 C618.6,10 605.7,19.4 603.5,20.7 C601.3,22 598.7,24.6 599.1,28.1 C599.5,31.5 602.2,37.4 602.4,44.8 Z" id="Path" fill="#FFAB00"></path>
            <path d="M624.1,16.4 C624.7,15.8 625.5,15.3 626.5,15.1 C627.4,14.8 628.6,15.1 629.3,15.6 C630.1,16.1 630.9,16.8 631.2,17.8 C631.5,18.8 631.1,19.8 630.7,20.5 L630.7,20.5 L630.7,20.5 C629.1,20.8 627.6,20.8 626.1,21.5 C626.5,20.7 627.4,20.4 628.2,20.2 C629,20.1 629.9,20.1 630.7,20.5 L630.7,20.5 L630.7,20.5 C630.6,19.6 630.5,18.7 630.2,18.1 C629.9,17.4 629.4,16.9 628.7,16.5 C628,16 627.4,15.9 626.6,15.9 C625.8,15.9 625,16.1 624.1,16.4 Z" id="Path" fill="#01AFEF"></path>
            <path d="M649.3,124.7 C649.5,125 663.1,144.5 667.1,152.2 C666.5,150.7 665.9,149.2 665.2,147.8 C663,143 660.6,138.4 658.1,133.7 C653.2,124.4 648.1,115.4 644,105.8 C639.8,96.3 636.2,86.5 633.6,76.5 C633,74 632.4,71.5 632,68.9 C631.6,66.3 631.1,63.7 630.5,61.1 C630.2,59.8 629.9,58.5 629.5,57.3 C629.3,56.7 629.1,56 628.9,55.4 C628.7,55 628.6,54.9 628.5,54.5 C628.4,54.2 628.3,53.9 628.2,53.6 C627.5,51.1 627,48.5 626.5,45.9 C626.7,48.5 626.9,51.1 627.4,53.7 C627.5,54 627.5,54.4 627.6,54.7 C627.7,55 627.9,55.5 627.9,55.7 C628.1,56.3 628.2,56.9 628.3,57.5 C628.5,58.8 628.7,60.1 628.9,61.3 C629.2,63.9 629.6,66.5 629.8,69.1 C630,71.8 630.4,74.4 630.9,77 C633,87.4 636.4,97.5 640.5,107.2 C643.3,113.1 646.2,119 649.3,124.7 C649.3,124.7 649.3,124.7 649.3,124.7 Z" id="Path" fill="#01AFEF"></path>
            <path d="M600.8,66.8 C601.2,67.3 601.5,67.8 601.9,68.3 C602.2,68.8 602.6,69.2 603,69.5 C603.8,70.2 604.6,70.7 605.6,71 C605.9,71.1 606.1,71.1 606.4,71.2 L607.2,71.3 L609,71.5 C610.2,71.7 611.4,71.8 612.6,71.9 C613.2,72 613.8,72 614.5,72.2 C615.1,72.3 615.9,72.6 616.5,73.1 C617.5,74.1 618.1,75.2 618.7,76.3 C619.3,77.4 619.7,78.6 620.1,79.7 C620.5,80.9 620.9,82 621.2,83.2 C622.5,87.9 623.3,92.7 623.8,97.6 C624,100 624.2,102.4 624.3,104.8 C624.4,107.2 624.4,109.6 624.7,112 C624.1,110.9 623.7,109.7 623.3,108.6 C623,107.4 622.7,106.2 622.4,105 C621.9,102.6 621.5,100.2 621.2,97.9 L620.2,90.8 C619.9,88.4 619.6,86.1 619.1,83.7 C618.7,81.4 618.1,79.1 617.2,76.9 C616.7,75.9 616.1,74.8 615.4,74.1 C614.8,73.5 613.6,73.4 612.4,73.4 C611.2,73.4 610,73.4 608.8,73.4 C608.2,73.4 607.6,73.3 607,73.3 C606.3,73.2 605.7,73.1 605,72.9 C603.7,72.5 602.5,71.6 601.8,70.4 C600.9,69.3 600.7,68 600.8,66.8 Z" id="Path" fill="#01AFEF"></path>
            <path d="M607,52.1 C607,52.1 614.3,54.6 616.9,56.7 C616.9,56.7 615.5,62.6 613.6,65.6 C611.7,68.6 610.4,72.9 606.8,73.9 L608.7,75.1 C608.7,75.1 613.5,73.4 618.6,58.1 C618.7,57.7 623.6,51.9 625.3,48.1 C627,44.3 626.9,42.3 626.9,42.3 L624.5,38.2 L624.6,39.4 C624.6,39.4 626.1,40.2 625.2,42.8 C624.3,45.4 622.9,50.3 618.5,54.3 L608,50.6 L607,52.1 Z" id="Path" fill="#FFFFFF"></path>
            <path d="M673.2,170.8 C667.7,167.4 651.1,162.1 623.2,157.3 C587,151.1 545.9,166.4 536.3,170.3 C518.9,177.5 507.8,177.1 507.8,177.1 C507.8,177.1 496.7,177.5 479.3,170.3 C469.8,166.4 432.2,151.1 396,157.3 C368.1,162.1 351.5,167.4 346,170.8 C344.5,171.7 342.3,173.4 342.3,175.1 C342.4,180.3 342.2,190.5 344.1,190.9 C345.7,191.2 348,192.8 350.1,195.7 C352.5,195.4 355.1,195.3 357.7,195.2 C357.5,189.6 358.1,185.4 359,182.2 C360.9,175.1 366.1,172.5 382.3,167.1 C401.2,160.8 440.9,158.8 468.6,173.1 C496.6,187.6 482.8,218.7 482.8,218.7 C482.8,218.7 476.9,236.7 461.7,249.7 C455,255.4 444.6,259.7 435.8,260.9 C419.4,263.1 401.9,262.3 387.8,254.7 L377.6,254.7 C380.8,257.3 384.5,259.6 388.7,261.2 C417.2,272 447.6,266.5 461.3,256.8 C493.2,234.1 493.2,202.9 494.6,199 C496,195.1 498.9,192.8 501.6,191.5 C505.4,189.6 509.8,189.6 513.6,191.5 C516.3,192.9 519.2,195.2 520.6,199 C522,202.9 522.1,234.1 553.9,256.8 C567.6,266.6 598,272.1 626.5,261.2 C655,250.4 660.1,211 661.4,204.7 C663.1,196.3 668.4,191.6 671.2,191 C673.2,190.6 676.5,180.5 676.6,175.2 C676.9,173.4 674.7,171.7 673.2,170.8 Z M650.7,227 C638.9,259.7 607.7,264.6 579.7,260.8 C570.9,259.6 560.5,255.3 553.8,249.6 C538.6,236.6 532.7,218.6 532.7,218.6 C532.7,218.6 519,187.4 546.9,173 C574.6,158.7 617.9,160.8 636.7,167 C653,172.4 654.6,175 656.5,182.1 C658.7,189.9 659.5,202.7 650.7,227 Z" id="Shape" fill="#FFFFFF"></path>
            <path d="M366,158.4 C366.4,156.6 366.7,154.8 366.8,153 C367,151.2 367.1,149.4 367.1,147.6 C367.2,144 367.2,140.4 367.2,136.7 C367.2,129.4 366.9,122.1 367.1,114.8 C367.2,111.1 367.3,107.4 367.7,103.7 C368.1,100 368.7,96.2 370.1,92.5 C370.8,90.6 371.7,88.8 373.1,87.1 C373.8,86.3 374.7,85.5 375.6,84.9 C376.1,84.6 376.5,84.4 377,84.1 C377.5,83.9 378,83.7 378.4,83.4 C380.4,82.6 382.5,82.2 384.6,82.3 C386.7,82.3 388.7,82.7 390.6,83.4 C394.4,84.7 397.7,86.8 400.7,89.1 C403.7,91.4 406.4,94 409,96.6 C411.6,99.3 414,102.1 416.4,104.9 C418.8,107.8 420.9,110.7 423.1,113.6 C425.3,116.5 427.5,119.3 430,121.9 C432.5,124.4 435.2,126.8 438.4,128.3 C441.5,129.9 445,130.7 448.5,130.6 C452,130.6 455.5,129.8 458.9,128.6 C462.2,127.4 465.4,125.6 468.3,123.6 C471.2,121.6 474,119.2 477,116.9 C480,114.6 483.2,112.5 486.7,110.9 C490.2,109.3 494,108.1 497.8,107.5 C501.6,106.8 505.7,106.6 509.7,107.3 C513.7,107.9 517.5,109.4 520.9,111.6 C524.2,113.8 527.1,116.5 529.5,119.6 C531.9,122.6 533.8,125.9 535.5,129.2 C535.9,130 536.4,130.8 536.8,131.5 L536.9,131.7 C536.9,131.7 536.9,131.7 536.9,131.7 C536.9,131.7 536.9,131.7 537,131.8 C537,131.8 537.1,131.8 537.1,131.9 C537.3,132 537.6,132.1 538,132.2 C539.5,132.5 541.3,132.5 543.1,132.5 C546.7,132.5 550.3,132.2 554,132.1 C561.3,131.8 568.7,131.9 576,132.8 C583.3,133.7 590.6,135.3 597.5,138 C604.4,140.6 610.9,144.3 616.6,148.8 C610.6,144.7 603.9,141.6 597,139.4 C590.1,137.2 583,135.9 575.8,135.3 C572.2,135 568.6,134.9 565,134.9 C561.4,134.9 557.8,135 554.1,135.1 L543.1,135.6 C541.2,135.6 539.4,135.7 537.3,135.4 C536.8,135.3 536.2,135.2 535.6,134.9 L535.1,134.6 C534.9,134.5 534.8,134.4 534.6,134.2 C534.4,134 534.3,133.9 534.2,133.7 L534,133.4 C533.4,132.5 533,131.8 532.5,131 C530.7,127.9 528.7,125 526.3,122.5 C523.9,120 521.2,117.9 518.3,116.3 C512.4,113.2 505.7,112.8 499,114 C495.6,114.6 492.3,115.5 489.1,116.7 C485.9,117.9 482.8,119.4 479.7,121.2 C476.6,122.9 473.4,124.8 470.1,126.6 C466.8,128.3 463.3,129.9 459.7,130.9 C457.9,131.5 456.1,131.9 454.3,132.3 C452.5,132.7 450.6,132.9 448.7,132.9 C444.9,132.9 441.1,132.1 437.7,130.5 C434.3,128.9 431.2,126.5 428.5,124 C425.8,121.4 423.4,118.6 421,115.8 C418.6,113 416.4,110.2 413.9,107.5 C411.5,104.8 408.9,102.2 406.4,99.7 C403.8,97.2 401.1,94.9 398.3,92.8 C395.5,90.7 392.5,88.9 389.4,87.9 C386.3,86.9 383.1,86.7 380.2,87.9 C379.9,88.1 379.5,88.2 379.1,88.4 C378.8,88.6 378.4,88.8 378.1,89 C377.5,89.4 377,89.8 376.5,90.4 C375.5,91.5 374.8,92.9 374.1,94.5 C372.9,97.6 372.2,101.1 371.7,104.6 C371.2,108.1 370.9,111.7 370.7,115.3 C370.3,122.5 370.2,129.8 369.9,137.1 C369.7,140.8 369.5,144.4 368.9,148.1 C368.5,151.4 367.7,155.1 366,158.4 Z" id="Path" fill="#01AFEF"></path>
            <path d="M580.5,95.2 C583.2,95.9 585.7,97.4 587.8,99.3 C589.9,101.2 591.6,103.6 593.1,106 C594.6,108.4 595.7,111 597,113.4 C598.3,115.9 599.3,118.5 600.5,120.9 C602.8,125.8 605.3,130.5 608.4,134.8 C611.5,139 615.1,142.8 620.2,145.3 C617.4,145.3 614.5,144.4 612,142.9 C609.5,141.4 607.3,139.5 605.4,137.3 C603.5,135.1 601.9,132.7 600.6,130.2 C599.2,127.7 598,125.2 597,122.6 C595.9,120 595,117.4 594,114.9 C592.9,112.3 592,109.8 590.9,107.3 C589.8,104.9 588.5,102.5 586.9,100.4 C585,98.3 582.9,96.5 580.5,95.2 Z" id="Path" fill="#01AFEF"></path>
            <path d="M384.4,58.7 C384.4,59.2 384.4,59.7 384.3,60.2 C384.1,60.8 383.9,61.4 383.7,62 C383.3,63.3 382.8,64.4 382.7,66 C382.7,66.2 382.7,66.6 382.7,66.7 C382.7,66.8 382.7,66.9 382.7,67.1 C382.7,67.4 382.7,67.7 382.7,68 C382.7,68.6 382.6,69.3 382.5,69.9 C382.2,72.4 381.8,75 380.9,77.2 C379.8,79.8 379.3,82.2 377.6,83.4 C376.8,84 375.7,84.4 374.7,84.5 C373.6,84.6 372.3,84.5 371,84.4 C369.7,84.3 368.5,84.2 367.3,83.9 L363.5,83.1 C361,82.6 358.4,82 355.9,81.4 C353.4,80.8 350.8,80.2 348.5,79.1 L348.3,79.3 C350.4,81 352.9,81.9 355.4,82.9 C357.9,83.8 360.4,84.6 362.9,85.3 C364.2,85.7 365.4,86 366.7,86.3 C368,86.6 369.4,86.8 370.7,87 C372,87.1 373.4,87.2 374.8,87.1 C376.4,87 377.8,86.4 379.1,85.4 C380.3,84.4 381.2,83 381.7,81.7 C382.3,80.4 382.5,79.1 383,78 C383.9,75.3 384.2,72.7 384.4,70 C384.4,69.3 384.5,68.7 384.5,68 C384.5,67.7 384.5,67.3 384.5,66.9 C384.5,66.7 384.5,66.5 384.4,66.3 C384.4,66 384.4,66.2 384.4,66 C384.4,65 384.7,63.6 384.9,62.4 C385,61.7 385.1,61.1 385.2,60.4 C385.3,59.8 385.2,59.1 385.1,58.5 L384.4,58.7 Z" id="Path" fill="#01AFEF"></path>
            <path d="M348.5,49.6 L348.4,52.2 L349.5,53.2 C350.2,57.9 352.3,60.1 353.7,61.1 C355.2,62.1 356.7,62.3 360.7,61.8 C364.7,61.3 366,59.2 366.5,58.2 C366.9,57.4 368.4,52.4 368.7,51.5 C369,50.7 369.8,50.6 370.9,50.7 C372,50.9 372.2,54 374.4,56.8 C375.5,58.2 377.7,59.7 381.2,59.4 C384.7,59.1 386.3,58.6 387.6,55.7 C388.9,52.8 388.2,50.1 388.4,49.5 C388.5,48.9 389.5,47.3 389.5,47.3 L389.2,45.1 C389.2,45.1 386.8,43.6 381.9,44.1 C377,44.6 374.3,46 373.4,46.6 C372.5,47.2 370.9,48.4 369.7,48.6 C368.5,48.7 365.7,47.1 363.8,46.8 C361.9,46.5 358.3,46.5 357,46.6 C355.7,46.7 351.1,48.4 351.1,48.4 C350.3,48.8 348.5,49.6 348.5,49.6 Z M372.4,49.1 C372.7,48.1 375,46.5 377.3,45.7 C379.6,44.9 383.9,44.7 385.3,44.8 C386.7,44.9 387.4,45.8 387.7,47.1 C388,48.4 387.8,52.4 387.8,52.4 C387.5,54.3 387.2,55.8 385.7,57.2 C384.6,58.1 378.9,60.4 375.8,57 C372.8,53.6 372.1,50.1 372.4,49.1 Z M351.9,48.8 C352.4,48.3 357.3,47.1 360.9,47.3 C364.5,47.4 366.7,49 366.9,49.8 C367.5,51.6 366.8,54.8 365.5,57.5 C364.5,59.6 361.8,60.6 360.8,60.8 C359.8,61 356.1,62.3 353.4,59.9 C350.7,57.5 350.4,52.8 350.3,51.4 C350.3,49.8 351.4,49.3 351.9,48.8 Z" id="Shape" fill="#FFFFFF"></path>
            <g id="Group-2" transform="translate(292.000000, 0.300000)">
                <polygon id="Path" fill="url(#radialGradient-1)" points="292.6 0 293.4 32.6 334.8 33.4 293.4 34.3 291.8 68.3 291.8 34.3 252.6 33.4 291.8 32.6"></polygon>
                <polygon id="Path" fill="url(#radialGradient-2)" points="39.4 0.8 41.5 41.8 79.7 42.6 41.6 43.9 41.5 79.6 39.5 43.9 2.84217094e-14 43 39.5 41.8"></polygon>
            </g>
        </g>
    </g>
</svg>