<?xml version="1.0" encoding="UTF-8"?>
<svg width="677px" height="267px" viewBox="0 0 677 267" version="1.1" xmlns="http://www.w3.org/2000/svg" xmlns:xlink="http://www.w3.org/1999/xlink">
    <!-- Generator: Sketch 55.2 (78181) - https://sketchapp.com -->
    <title>Artboard</title>
    <desc>Created with Sketch.</desc>
    <defs>
        <radialGradient cx="50.019674%" cy="49.956099%" fx="50.019674%" fy="49.956099%" r="54.8076214%" gradientTransform="translate(0.500197,0.499561),scale(0.830900,1.000000),translate(-0.500197,-0.499561)" id="radialGradient-1">
            <stop stop-color="#93E7FF" offset="0%"></stop>
            <stop stop-color="#A8ECFF" stop-opacity="0.9112" offset="8.878917%"></stop>
            <stop stop-color="#C7F3FF" stop-opacity="0.7513" offset="24.87%"></stop>
            <stop stop-color="#E0F8FF" stop-opacity="0.5845" offset="41.55%"></stop>
            <stop stop-color="#F1FCFF" stop-opacity="0.4099" offset="59.01%"></stop>
            <stop stop-color="#FCFEFF" stop-opacity="0.2226" offset="77.74%"></stop>
            <stop stop-color="#FFFFFF" stop-opacity="0" offset="100%"></stop>
        </radialGradient>
        <radialGradient cx="49.9155541%" cy="49.9853373%" fx="49.9155541%" fy="49.9853373%" r="49.6972766%" gradientTransform="translate(0.499156,0.499853),scale(0.988708,1.000000),rotate(-1.520893),translate(-0.499156,-0.499853)" id="radialGradient-2">
            <stop stop-color="#82E7FF" offset="5.919358e-05%"></stop>
            <stop stop-color="#A1EDFF" stop-opacity="0.7944" offset="20.56%"></stop>
            <stop stop-color="#D4F7FF" stop-opacity="0.4299" offset="57.01%"></stop>
            <stop stop-color="#F3FDFF" stop-opacity="0.1536" offset="84.64%"></stop>
            <stop stop-color="#FFFFFF" stop-opacity="0" offset="100%"></stop>
        </radialGradient>
    </defs>
    <g id="Artboard" stroke="none" stroke-width="1" fill="none" fill-rule="evenodd">
        <g id="logo" fill-rule="nonzero">
            <g id="text" transform="translate(0.000000, 120.000000)">
                <g id="Group" transform="translate(212.000000, 111.000000)" fill="#00B8E0">
                    <polygon id="Path" points="9.7 9.6 3.3 0.2 3.3 0.1 0.9 0.1 0.9 18.3 3.3 18.3 3.3 4.4 9.5 13.4 9.8 13.4 16 4.4 16 18.3 18.4 18.3 18.4 0.1 16 0.1"></polygon>
                    <rect id="Rectangle" x="25.8" y="0.1" width="2.4" height="18.3"></rect>
                    <polygon id="Path" points="34.3 2.4 40.3 2.4 40.3 18.3 42.7 18.3 42.7 2.4 48.7 2.4 48.7 0.1 34.3 0.1"></polygon>
                    <path d="M71.2,0.1 L64.8,0.1 L64.8,18.4 L71.2,18.4 C76.8,18.4 80.9,14.6 80.9,9.2 C80.9,3.9 76.8,0.1 71.2,0.1 Z M71.2,16.1 L67.2,16.1 L67.2,2.4 L71.2,2.4 C75.4,2.4 78.4,5.2 78.4,9.3 C78.4,13.3 75.4,16.1 71.2,16.1 Z" id="Shape"></path>
                    <polygon id="Path" points="89.7 10.3 99.4 10.3 99.4 8 89.7 8 89.7 2.3 100.6 2.3 100.6 0.1 87.3 0.1 87.3 18.3 100.7 18.3 100.7 16.1 89.7 16.1"></polygon>
                    <path d="M121.4,5.6 C121.4,4.2 120.9,2.9 120,1.9 C118.8,0.7 117,0.1 114.8,0.1 L106.9,0.1 L106.9,18.4 L109.3,18.4 L109.3,11.5 L114.1,11.5 L119.3,18.4 L122.3,18.4 L116.8,11 C119.7,10.3 121.4,8.4 121.4,5.6 Z M109.3,2.4 L114.6,2.4 C117.3,2.4 119,3.6 119,5.8 C119,7.9 117.3,9.3 114.6,9.3 L109.3,9.3 L109.3,2.4 Z" id="Shape"></path>
                    <path d="M149.4,8.9 C150.6,8.2 151.9,7 151.9,4.8 C151.9,3.6 151.5,2.6 150.7,1.8 C149.6,0.7 147.9,0.2 145.9,0.2 L138.1,0.2 L138.1,18.5 L146.2,18.5 C150.3,18.5 152.9,16.6 152.9,13.4 C152.9,11.2 151.7,9.7 149.4,8.9 Z M145.7,2.3 C148,2.3 149.4,3.3 149.4,5 C149.4,6.9 147.9,8 145.5,8 L140.4,8 L140.4,2.3 L145.7,2.3 Z M140.5,10.2 L145.9,10.2 C148.8,10.2 150.4,11.2 150.4,13.1 C150.4,15 148.8,16.1 146.2,16.1 L140.4,16.1 L140.4,10.2 L140.5,10.2 Z" id="Shape"></path>
                    <path d="M173.6,5.6 C173.6,4.2 173.1,2.9 172.2,1.9 C171,0.7 169.2,0.1 167,0.1 L159,0.1 L159,18.4 L161.4,18.4 L161.4,11.5 L166.2,11.5 L171.3,18.3 L171.4,18.4 L174.4,18.4 L168.9,11 C171.9,10.3 173.6,8.4 173.6,5.6 Z M161.5,2.4 L166.8,2.4 C169.5,2.4 171.2,3.6 171.2,5.8 C171.2,7.9 169.5,9.3 166.8,9.3 L161.5,9.3 L161.5,2.4 Z" id="Shape"></path>
                    <rect id="Rectangle" x="180.2" y="0.1" width="2.4" height="18.3"></rect>
                    <polygon id="Path" points="192.4 0.1 190 0.1 190 18.3 202.4 18.3 202.4 16.1 192.4 16.1"></polygon>
                    <polygon id="Path" points="210.7 0.1 208.3 0.1 208.3 18.3 220.8 18.3 220.8 16.1 210.7 16.1"></polygon>
                    <polygon id="Path" points="229 16.1 229 10.3 238.8 10.3 238.8 8 229 8 229 2.3 239.9 2.3 239.9 0.1 226.6 0.1 226.6 18.3 240.1 18.3 240.1 16.1"></polygon>
                </g>
                <g id="Group" fill="#FFFFFF">
                    <path d="M225,58.1 C225.2,62.9 224.3,68.9 222,76.3 C219.1,81.2 217.1,84.5 216,86.3 C213.5,89.9 210.7,92.9 207.6,95.3 C205.1,98.7 198.6,103.6 188.2,110.2 C187.4,110.2 186.5,110.6 185.4,111.4 C184.4,112.2 183.6,112.7 183.1,112.8 C180.9,114.3 175.6,116.4 167.4,119.1 L165.1,120.5 C164.9,120.5 162.1,121 156.7,122 C153.4,122.6 150.5,122.8 148,122.6 C146,122.8 143.5,122.5 140.3,121.9 C137.4,120.2 136,117.6 136,114.3 C136,113.2 136.1,111.9 136.4,110.2 C139,102.9 144.6,97.3 153.1,93.3 C156.1,92.6 158.5,92.8 160.6,93.8 C160.9,94.2 161.1,94.7 161.1,95.2 C161.1,95.6 160.9,96 160.6,96.4 C155.1,99.2 151.5,101.2 149.9,102.3 C146.2,105.1 144.6,108 145.1,111 C146.1,112.4 147.9,113.3 150.5,113.7 C152.8,113.8 155.1,113.9 157.4,114.1 C163.5,113.6 170.7,111.3 179.2,107.2 C181.2,107 183.5,106.1 185.8,104.6 C189.6,102.4 191.6,101.2 191.9,101 C192.3,100.4 193.2,99.7 194.6,98.7 C196,97.8 196.9,97 197.3,96.4 C205.5,89.6 210.7,82.8 212.9,76 C213.3,73.4 213.9,69.5 214.6,64.3 C213.7,60.7 212.8,57.1 211.9,53.6 C210.6,49.5 208.7,46.2 206.1,43.7 C205.1,42 203.5,40 201.2,37.7 C199.3,35.7 197.4,33.8 195.6,31.9 C191.7,29.2 186.8,26.5 181.1,23.9 C176,21.8 170.9,19.6 165.9,17.4 C148.1,12.2 130.2,9.7 112.1,9.7 C106.9,9.7 101.7,9.9 96.5,10.3 C76.9,11.9 61.2,14.7 49.2,18.5 C47.8,19.2 44.9,20.3 40.6,21.8 C36.9,23 34.2,24.3 32.4,25.7 C25.1,28.3 19.8,31.4 16.4,35 C16.3,35.6 16.3,36.2 16.4,37 C16.4,38.1 16.4,38.7 16.4,38.8 C16.4,39.6 16.1,40.3 15.5,40.9 C15,42.1 13.7,42.8 11.7,43 C9.2,43.2 7.6,43.5 7,44 C3.6,44.1 1.5,42.9 0.9,40.6 C2.3,33.2 10.1,26 24.4,18.9 C28.3,16.4 33.5,14 40.3,11.8 C46,10 51.6,8.2 57.3,6.4 C59.4,6.4 62.2,5.9 65.7,5 C69.1,4.1 71.8,3.5 73.6,3.5 C76.8,2.8 81.6,2.2 87.9,1.7 C94.3,1.1 98.9,0.6 101.9,0.1 C103.3,0.3 104.8,0.5 106.4,0.5 C107.7,0.5 109.7,0.4 112.4,0.3 C115.1,0.2 117.1,0.1 118.5,0.1 C126.2,0.1 135.5,1 146.5,2.8 C157,4.6 166.1,6.8 173.9,9.3 C174.1,9.9 174.9,10.2 176.1,10.3 C177.7,10.5 178.6,10.6 178.8,10.7 C196.3,18.8 207.8,26.5 213.3,33.7 C217,36.8 219.8,40.7 221.7,45.4 C222.8,47.8 223.9,52.2 225,58.1 Z M129.8,75.8 C129.4,76.7 129.2,78.1 129.4,79.9 C129.6,81.7 129.4,83.1 129.1,83.9 C129.3,88.1 129.3,94.3 128.9,102.6 C125.9,106.1 123.2,107.7 120.9,107.3 C120,106.7 119.4,105.7 119.2,104.2 C119,103 118.9,101.7 118.7,100.5 C118.9,100 118.9,99.4 118.7,98.8 C118.7,97.9 118.7,97.3 118.7,97.1 C118.9,95.2 119,92.4 118.8,88.6 C118.6,84.8 118.6,82 118.7,80.2 C118.3,76.3 118.3,73.6 118.5,72.1 C118.4,71.3 118.4,69.9 118.2,68 C118.1,66.1 118,64.6 118,63.6 C118,61.2 118.4,59.2 119.1,57.4 C119.1,53.7 120.9,51 124.4,49.2 C125.2,48.5 126.1,48.2 127.1,48.2 C128.2,48.2 129.1,48.7 129.6,49.7 C129.9,53 130,57.3 130,62.8 C129.8,69.1 129.7,73.5 129.8,75.8 Z" id="Shape"></path>
                    <path d="M291.3,94.4 C289.7,95.1 288.2,95.9 286.8,96.6 C285,97.4 283.5,97.8 282.3,97.8 C276.2,98.5 270.8,98.9 266.2,98.9 C253,98.9 242.5,95.9 234.6,89.9 C233.8,88.4 233,86.9 232.1,85.5 C231.3,83.7 230.9,82.1 230.9,80.7 C230.9,79.7 231.1,78.7 231.4,77.7 C231.6,76 232.9,73.3 235.5,69.7 C236.7,69.8 238.4,69.1 240.5,67.8 C242.6,66.4 244.2,65.8 245.2,65.8 C246.1,65.8 247,66.1 247.9,66.8 C245.1,71.2 243.7,74.5 243.7,76.8 C243.7,80.5 245.2,84 248.1,87.3 C251.1,90.6 254.4,92.6 258.1,93.2 C261.5,94.4 265.1,94.9 268.9,94.9 C275.4,94.9 282.5,93.3 290.4,90.2 L291.3,94.4 Z M265.1,21.9 C262.4,23.7 259.1,24.6 255.1,24.6 C253.4,24.6 251.7,24.4 250.1,24 C249,22.7 248.4,21.1 248.4,19.3 C248.4,17.7 248.8,15.9 249.8,13.6 C252.9,8.5 256.4,6.2 260.2,6.7 C260.9,7.7 261.3,9.2 261.6,11.4 C261.8,13.9 262.1,15.5 262.3,16.2 C262.5,16.6 263.1,17.5 264.1,18.9 C265,19.9 265.3,20.9 265.1,21.9 Z" id="Shape"></path>
                    <path d="M348.2,98.6 C343.4,99.9 338.6,100.5 333.8,100.5 C326.7,100.5 320.8,99 316.1,95.9 C310.3,98.1 305.1,99.2 300.6,99.2 C296.6,99.2 293,98.3 289.9,96.5 C288.8,95.8 288.2,94.1 288.2,91.2 C288.2,87.7 289.2,84.3 291.1,81.1 C293.6,77.1 297.2,74.2 302,72.4 C306.3,70.8 310.6,69.9 314.8,69.9 C318.6,69.9 322,70.6 325.1,72 L327.2,75.6 C327.3,76.4 327.3,77.3 327.3,78.3 C327.3,79.1 327.3,80.3 327.3,81.9 C327.3,83.5 327.3,84.7 327.3,85.5 C327.3,90 329.1,93 332.7,94.4 C334.7,94.8 336.6,95 338.6,95 C341.2,95 344.4,94.6 348.2,93.9 C349.1,93.7 349.6,94.4 349.6,95.9 C349.5,97.5 349.1,98.4 348.2,98.6 Z M317.7,78.4 C316.8,76.2 314.2,75.1 309.8,75.1 C307.4,75.9 305.1,77.6 302.8,80 C300.8,84.4 299.8,87.1 299.8,88.4 C299.8,89.1 299.9,89.9 300.2,90.7 C300.9,92.9 302.5,94 305.2,94 C305.7,94 306.2,94 306.7,93.9 C308.4,93.2 309.8,91.8 310.8,90 C311.5,88.3 312.1,86.5 312.8,84.7 C313,83.8 313.8,82.8 315.4,81.8 C316.9,80.7 317.7,79.6 317.7,78.4 Z" id="Shape"></path>
                    <path d="M410.6,93.5 C403.2,96.5 396.5,97.9 390.6,97.9 C384.2,97.9 378.4,96.2 373.1,92.9 C371.3,92.6 369.2,93.2 367,94.7 C364.5,96.3 362.5,97.2 361.2,97.2 C359.7,97.4 358.5,97.6 357.4,97.6 C353.5,97.6 351,96.2 349.9,93.4 C349.7,91.7 349.6,90 349.4,88.2 C349.1,86.1 348.3,84.5 347.1,83.6 C346.2,83.5 345.4,83.4 344.8,83.1 C343.1,82.4 342,81.2 341.5,79.7 C347.7,78.5 353.6,78 359.1,78.3 C360.7,79 361.6,81.3 361.8,84.9 C362,88.3 362.7,89.9 363.9,89.9 C364.6,89.9 365.7,89.4 367.2,88.5 C371.5,83 376,80.3 380.6,80.3 C381.4,80.3 382.3,80.3 383.2,80.4 C384.1,81.4 384.9,83.8 385.5,87.5 C386.1,90.5 387.6,92.4 390,93.2 C391.3,93.4 392.6,93.4 393.9,93.4 C399.1,93.4 404.3,92.2 409.5,89.8 L410.6,93.5 Z" id="Path"></path>
                    <path d="M465.2,98.6 C460.4,99.9 455.6,100.5 450.8,100.5 C443.7,100.5 437.8,99 433.1,95.9 C427.3,98.1 422.1,99.2 417.6,99.2 C413.6,99.2 410,98.3 406.9,96.5 C405.8,95.8 405.2,94.1 405.2,91.2 C405.2,87.7 406.2,84.3 408.1,81.1 C410.6,77.1 414.2,74.2 419,72.4 C423.3,70.8 427.6,69.9 431.8,69.9 C435.6,69.9 439,70.6 442.1,72 L444.2,75.6 C444.3,76.4 444.3,77.3 444.3,78.3 C444.3,79.1 444.3,80.3 444.3,81.9 C444.3,83.5 444.3,84.7 444.3,85.5 C444.3,90 446.1,93 449.7,94.4 C451.7,94.8 453.6,95 455.6,95 C458.2,95 461.4,94.6 465.2,93.9 C466.1,93.7 466.6,94.4 466.6,95.9 C466.6,97.5 466.1,98.4 465.2,98.6 Z M434.7,78.4 C433.8,76.2 431.2,75.1 426.8,75.1 C424.4,75.9 422.1,77.6 419.8,80 C417.8,84.4 416.8,87.1 416.8,88.4 C416.8,89.1 416.9,89.9 417.2,90.7 C417.9,92.9 419.5,94 422.2,94 C422.7,94 423.2,94 423.7,93.9 C425.4,93.2 426.8,91.8 427.8,90 C428.5,88.3 429.1,86.5 429.8,84.7 C430,83.8 430.8,82.8 432.4,81.8 C433.9,80.7 434.7,79.6 434.7,78.4 Z" id="Shape"></path>
                </g>
            </g>
            <g id="iso" transform="translate(308.000000, 0.000000)">
                <path d="M207.4,110.7 C209.5,109.6 211.7,108.9 214.1,108.5 C216.5,108.1 219,108.1 221.5,108.6 C222.7,108.9 224,109.2 225.2,109.8 C226.4,110.3 227.5,111 228.5,111.8 C230.5,113.3 232.1,115.2 233.5,117.2 C234.2,118.2 234.8,119.2 235.4,120.2 C236,121.2 236.5,122.2 237,123.2 C237.5,124.2 238,125.1 238.6,125.8 C239.2,126.5 240.1,126.8 241.1,127 C242.1,127.2 243.2,127.3 244.3,127.4 C245.4,127.5 246.5,127.5 247.6,127.5 C249.8,127.5 252.1,127.4 254.4,127.5 C263.5,127.9 272.5,129.6 281.2,132.3 C285.5,133.7 289.8,135.3 293.9,137.3 C298,139.3 301.9,141.7 305.2,144.8 C301.5,142.2 297.4,140.3 293.3,138.7 C289.2,137.1 284.9,135.8 280.6,134.6 C276.3,133.5 271.9,132.6 267.5,131.8 C263.1,131 258.7,130.4 254.3,130.1 C252.1,130 249.9,129.9 247.6,129.8 C245.3,129.7 243.1,129.6 240.7,129.2 C239.5,129 238.2,128.4 237.2,127.5 C236.2,126.6 235.6,125.5 235,124.6 C233.8,122.7 232.6,120.9 231.1,119.4 C229.7,117.8 228,116.5 226.3,115.6 C224.6,114.6 222.7,114.1 220.8,113.8 C216.9,113.3 212.7,113.8 208.2,113.8 L207.4,110.7 Z" id="Path" fill="#00B8E0"></path>
                <g id="Group" transform="translate(17.000000, 18.000000)" fill="#00B8E0">
                    <path d="M43.7,85.9 C43.9,84.7 44.2,83.6 44.5,82.5 C44,83.5 43.8,84.7 43.7,85.9 Z" id="Path"></path>
                    <path d="M42.7,92.9 C43.7,90.3 43.6,88 43.8,85.8 C43.3,88.1 42.9,90.5 42.7,92.9 Z" id="Path"></path>
                    <path d="M73.6,58.6 L80.6,66.8 C75.5,55.9 69.6,52.4 65.5,48.1 C63.6,45.4 62.4,43.3 62.6,42 C62.9,40.1 62.9,38.2 62.6,34.8 C62.2,36.5 61.8,37.6 61.3,38.1 C61.2,38.3 60.3,38.9 59.7,39.1 C59.9,39.9 59.9,40.1 59.8,40.7 C59.7,42.4 58.1,48.7 58.3,49.9 C58.6,51.2 59.2,56.5 57.9,58.8 C56.6,61.1 52.5,66.1 50.6,66.6 C50.5,66.6 50.3,66.7 50.2,66.7 C50.2,66.7 46.3,75.5 46,78.1 C46,78.1 46,78.1 46,78.1 C47.3,75 49.1,72.4 51.5,70.5 C52.1,70 52.7,69.5 53.3,69.1 C66.1,61.1 73.6,69.6 84.1,81.8 C81.4,69.7 80.1,67.2 73.6,58.6 L73.6,58.6 Z" id="Path"></path>
                    <path d="M42.7,92.9 C42.7,92.9 42.7,92.9 42.7,92.9 C42.4,93.8 41.3,94.8 41.4,96.4 L26.2,68.5 C25.2,66.7 24.3,64.9 23.4,63.2 L23.4,63.1 C23,61.8 22.6,60.5 22.4,59.2 L22.4,59.2 L22.4,59.2 C21.4,54.7 21.3,50.6 20.6,46 C19.2,36.9 24.4,22.6 26.5,17.9 C28.7,13.2 33.6,10.8 37.5,10.2 C41.3,9.7 45.6,9.1 45.6,9.1 C45.6,9.1 45.4,8.6 49.8,12.2 C52.6,14.5 54.2,18.6 55,21.4 L55,21.4 C55.4,21.5 55.9,23.6 56.2,25.3 C57,25.2 57.6,25.2 58.1,25.2 C58.6,25.2 58.9,25 59.3,25.1 C59.6,25.1 59.9,25.1 60.1,25.1 C60.6,25.1 61,25.3 61.4,25.5 C60.6,21.6 59.4,18 58.1,15.6 C54.6,9.4 48.8,6.9 48.8,6.9 C48.8,6.9 45.5,-3.8 28.4,2.5 C11.4,8.9 5.4,29.6 4.2,36.7 C3,43.8 2.1,66.7 0.4,83.9 C-1.3,101.1 3.4,110.4 3.4,110.4 L5,105.2 L6.5,114.3 C6.5,114.3 7.5,99.4 8.8,95.1 C10,90.8 7.5,125.9 18.9,125.7 C22.7,125.7 27.5,126.1 32,126.7 C31.4,116.1 40.3,132.6 41.5,125.4 C42.3,120.3 42.8,109.5 42.1,100.6 C42.2,99.9 42.3,99.2 42.4,98.5 C42.3,96.6 42.5,94.7 42.7,92.9 Z" id="Path"></path>
                </g>
                <path d="M252.1,50.6 L252.7,48.8 L255.2,46.6 L259.5,48 L259.8,48.5 C259.8,48.1 260.1,46.9 262.6,46.9 C263,46.9 263.4,47 263.7,47.1 C264,45.9 264.3,44.7 264.1,44.1 C263.6,42.6 263.1,41.4 259.8,41.8 C259.8,41.8 249.9,46 247.8,52.8 C245.8,59.6 248.7,62.3 250.9,66.9 C253.1,71.5 255.3,73.6 254.7,78.8 C254.1,83.7 251.3,91.6 253,95.1 C253.3,95.5 253.4,95.7 253.4,95.7 C253.2,95.5 253.1,95.3 253,95.1 C252.8,94.8 252.6,94.5 252.3,94.1 C252.9,95.6 253.6,97.1 254.5,97.3 C255.5,97.6 256.4,97.6 257.4,96.8 C255.6,95.2 254.5,92.8 254.5,89.7 C254.5,84.6 256.1,81.5 256.2,78.7 C256.4,74.7 254.1,68.1 251.4,64 C248.7,59.9 247.7,56.8 248.9,54.6 L252.1,50.6 Z" id="Path" fill="#48799E"></path>
                <path d="M259.8,41.9 C259.8,41.9 249.9,46.1 247.8,52.9 C245.8,59.7 248.7,62.4 250.9,67 C253.1,71.6 255.3,73.7 254.7,78.9 C254.1,84.1 250.9,92.8 253.4,95.9 C253.4,95.9 249.3,88.9 239.3,85.1 C229.3,81.3 228.3,80.5 228.3,80.5 C228.3,80.5 227.6,78.6 228.8,77.8 C228.8,77.8 244.7,83.8 246.6,83.9 C248.5,84 253.8,84.4 253.1,78.6 C252.4,72.8 247.4,71.1 243.4,65.9 C239.3,60.6 239.9,58.9 242.6,52.9 C245.3,46.9 253.3,43.1 254.1,42.9 C254.7,42.5 259.8,41.9 259.8,41.9 Z" id="Path" fill="#FFFFFF"></path>
                <path d="M256.4,51.9 C256.5,51.4 256.6,50.9 256.6,50.4 C256.6,49.9 256.7,49.4 256.6,49 C256.6,48.9 256.5,48.8 256.5,48.8 C256.5,48.8 256.4,48.7 256.3,48.6 L255.7,48.2 L254.5,47.4 L255.1,46.5 L256.3,47.5 L256.9,48 C257,48.1 257.1,48.1 257.2,48.4 C257.3,48.6 257.3,48.7 257.3,48.9 C257.4,49.5 257.3,50 257.1,50.5 C257,51 256.8,51.5 256.7,52 L256.4,51.9 Z" id="Path" fill="#00D0E8"></path>
                <path d="M257.8,46.7 C258.4,47.1 259,47.5 259.4,48 C259.9,48.5 260.2,49.3 260.1,50 C260,51.3 259.8,52.6 259.5,53.9 L259.3,53.9 C259.4,52.6 259.4,51.3 259.4,50.1 C259.4,49.5 259.1,49.1 258.7,48.6 C258.3,48.2 257.7,47.9 257.2,47.7 L257.8,46.7 Z" id="Path" fill="#00D0E8"></path>
                <path d="M262.3,54 C262.7,53.2 263.1,52.4 263.6,51.6 C264.1,50.9 264.8,50.1 265.7,49.7 L265.7,49.7 L265.3,50.3 C265.2,49 264.6,47.5 263.3,47.1 C262.7,46.9 261.9,46.9 261.2,47 C260.5,47.1 259.8,47.6 259.8,48.3 L259.6,48.3 C259.5,47.4 260.3,46.8 261.1,46.6 C261.9,46.4 262.7,46.3 263.5,46.5 C264.3,46.7 265,47.3 265.5,48 C266,48.7 266.3,49.4 266.4,50.3 L266.5,50.7 L266.1,50.9 L266.1,50.9 C265.4,51.1 264.8,51.7 264.3,52.3 C263.8,52.9 263.3,53.7 262.9,54.4 L262.3,54 Z" id="Path" fill="#00D0E8"></path>
                <path d="M247.3,50.9 C247.7,50.6 251,49.3 253.2,50.5 C255.4,51.7 262.3,56.5 262.3,56.5 C262.3,56.5 263.6,59.7 264.8,60.3 C264.8,60.3 257.2,55.4 254.5,54.7 C251.8,54 246.5,57.2 246.5,57.2 L247.3,50.9 Z" id="Path" fill="#FFFFFF"></path>
                <path d="M251.2,47.9 C251.2,47.9 256.9,45.9 259.2,48.5 C261.5,51.1 262.3,56.6 262.3,56.6 L262.9,55.2 C262.9,55.2 263.1,52.2 261.8,49.8 C260.5,47.4 259.2,45 254,45.3 C248.8,45.6 251.2,47.9 251.2,47.9 Z" id="Path" fill="#FFFFFF"></path>
                <path d="M256.3,78 C256.4,78.2 256.4,78.4 256.4,78.5 C256.4,78.7 256.3,78.8 256.3,79 L256.1,80 L255.8,82 C255.6,83.3 255.5,84.6 255.4,85.9 C255.3,88.5 255.3,91.2 256.1,93.4 C256.9,95.6 258.7,96.9 261.2,97.3 C263.6,97.7 266,98 268.5,96.9 C267.8,98.2 266.4,98.9 265.1,99.4 C263.7,99.8 262.2,99.8 260.8,99.6 C259.4,99.4 257.9,98.9 256.6,97.9 C255.4,96.9 254.5,95.5 254.1,94.1 C253.3,91.2 253.8,88.4 254.2,85.8 C254.4,84.5 254.7,83.2 255,81.9 L255.5,80 L255.8,79 C255.8,78.8 255.9,78.7 255.9,78.5 C256.1,78.3 256.2,78.2 256.3,78 Z" id="Path" fill="#00D0E8"></path>
                <path d="M270,66.7 C272.4,67.7 274.6,69.1 276.7,70.7 C277.7,71.5 278.7,72.5 279.5,73.5 L282,76.5 L291.8,88.6 C295.1,92.6 298.3,96.7 301.4,100.8 L303.8,103.9 C304.6,104.8 305.4,105.8 306.3,106.7 C308.1,108.5 309.9,110.3 311.8,112.1 C319.3,119.2 327.1,126 334.5,133.3 C338.2,136.9 341.9,140.6 345.4,144.4 C347.1,146.3 348.8,148.3 350.4,150.4 C352,152.5 353.5,154.7 354.3,157.1 C353.2,154.7 351.6,152.7 349.9,150.8 C348.2,148.9 346.4,147 344.5,145.2 C340.8,141.6 337,138.1 333.1,134.7 C325.3,127.9 317.5,121.1 309.7,114.2 C307.8,112.4 305.8,110.7 304,108.8 C303.1,107.9 302.2,106.9 301.3,105.8 L298.9,102.7 C295.8,98.6 292.7,94.4 289.7,90.2 L280.6,77.6 L278.3,74.4 C277.6,73.3 276.7,72.4 275.8,71.5 C274.1,69.7 272.1,68.2 270,66.7 Z" id="Path" fill="#00B8E0"></path>
                <path d="M271.1,95.6 L271.1,95.6 C271.2,95.7 271.3,95.8 271.4,95.9 C271.5,95.8 271.7,95.7 271.8,95.6 L271.1,95.6 Z" id="Path" fill="#00D0E8"></path>
                <path d="M254,77.1 C254,77.1 258,74.5 263.3,74.7 C263.3,74.7 265,68.6 265.9,67.3 C266.7,66 267.7,64 267.6,63.2 C267.5,62.3 267.3,61.6 267.3,61.6 L269.4,63.3 C269.4,63.3 269.9,64.4 269.1,65.8 C268.3,67.3 265.2,74.3 265.4,75.8 C265.6,77.3 271.8,95.7 271.5,95.8 C271.3,95.9 269.9,96.9 269.9,96.9 C269.9,96.9 264.2,78.8 263.7,77.2 C263.7,77.2 259.5,75.5 254.7,78.8 L254,79.4 L254,77.1 Z" id="Path" fill="#FFFFFF"></path>
                <path d="M275.7,34 C275.7,34 276.7,32.2 277.9,32.2 C279,32.2 278.3,32.2 278.3,32.2 C278.3,32.2 287.3,48.6 289,50.1 C290.7,51.6 292.2,53.6 295.4,52.6 C298.6,51.6 298.7,44.9 298.6,41.2 C298.5,37.5 294.4,26.3 297,22.5 C299.6,18.7 306.9,11.4 317.6,10 L321.7,12.1 L313.8,16.1 C313.8,16.1 317.5,18.2 318.1,20 L318.1,21.3 L315.6,24.8 L314.6,25.1 L314.7,24.5 C314.7,24.5 315.8,23.9 315.3,22.6 C314.9,21.3 312.6,19.2 308.7,19.8 L307.8,20.9 C307.8,20.9 311.7,24.4 312.8,25.9 C313.9,27.4 315.3,32.3 315.3,33.9 C315.3,35.5 315.3,35.5 315.3,35.5 C315.3,35.5 312.5,31.1 308.6,29 C304.6,26.9 303.5,26.8 303.5,26.8 C303.5,26.8 301.7,28.1 301.5,32.8 C301.3,37.5 301.9,46.6 301,49.5 C300,52.4 297.2,62.1 290.6,66.2 C290.6,66.2 289.2,67.9 288.4,66.2 C287.6,64.5 289,58.8 286.2,53.1 C283.3,47.2 275.7,34 275.7,34 Z" id="Path" fill="#000000" opacity="0.5"></path>
                <path d="M275.7,34 C275.7,34 276.7,32.2 277.9,32.2 C279,32.2 278.3,32.2 278.3,32.2 C278.3,32.2 287.3,48.6 289,50.1 C290.7,51.6 292.2,53.6 295.4,52.6 C298.6,51.6 298.7,44.9 298.6,41.2 C298.5,37.5 294.4,26.3 297,22.5 C299.6,18.7 306.9,11.4 317.6,10 L321.7,12.1 L313.8,16.1 C313.8,16.1 317.5,18.2 318.1,20 L318.1,21.3 L315.6,24.8 L314.6,25.1 L314.7,24.5 C314.7,24.5 315.8,23.9 315.3,22.6 C314.9,21.3 312.6,19.2 308.7,19.8 L307.8,20.9 C307.8,20.9 311.7,24.4 312.8,25.9 C313.9,27.4 315.3,32.3 315.3,33.9 C315.3,35.5 315.3,35.5 315.3,35.5 C315.3,35.5 312.5,31.1 308.6,29 C304.6,26.9 303.5,26.8 303.5,26.8 C303.5,26.8 301.7,28.1 301.5,32.8 C301.3,37.5 301.9,46.6 301,49.5 C300,52.4 297.2,62.1 290.6,66.2 C290.6,66.2 289.2,67.9 288.4,66.2 C287.6,64.5 289,58.8 286.2,53.1 C283.3,47.2 275.7,34 275.7,34 Z" id="Path" fill="#FFFFFF"></path>
                <path d="M294.4,43.8 C294.6,49 293.5,51.6 292.8,52.8 C293.5,53 294.4,53 295.4,52.7 C298.6,51.7 298.7,45 298.6,41.3 C298.5,37.6 294.4,26.4 297,22.6 C299.6,18.8 306.9,11.5 317.6,10.1 C310.6,9 297.7,18.4 295.5,19.7 C293.3,21 290.7,23.6 291.1,27.1 C291.5,30.5 294.2,36.4 294.4,43.8 Z" id="Path" fill="#48799E"></path>
                <path d="M316.1,15.4 C316.7,14.8 317.5,14.3 318.5,14.1 C319.4,13.8 320.6,14.1 321.3,14.6 C322.1,15.1 322.9,15.8 323.2,16.8 C323.5,17.8 323.1,18.8 322.7,19.5 L322.7,19.5 L322.7,19.5 C321.1,19.8 319.6,19.8 318.1,20.5 C318.5,19.7 319.4,19.4 320.2,19.2 C321,19.1 321.9,19.1 322.7,19.5 L322.7,19.5 L322.7,19.5 C322.6,18.6 322.5,17.7 322.2,17.1 C321.9,16.4 321.4,15.9 320.7,15.5 C320,15 319.4,14.9 318.6,14.9 C317.8,14.9 317,15.1 316.1,15.4 Z" id="Path" fill="#00D0E8"></path>
                <polygon id="Path" fill="url(#radialGradient-1)" points="276.6 0.3 277.4 32.9 318.8 33.7 277.4 34.6 275.8 68.6 275.8 34.6 236.6 33.7 275.8 32.9"></polygon>
                <path d="M341.3,123.7 C341.5,124 355.1,143.5 359.1,151.2 C358.5,149.7 357.9,148.2 357.2,146.8 C355,142 352.6,137.4 350.1,132.7 C345.2,123.4 340.1,114.4 336,104.8 C331.8,95.3 328.2,85.5 325.6,75.5 C325,73 324.4,70.5 324,67.9 C323.6,65.3 323.1,62.7 322.5,60.1 C322.2,58.8 321.9,57.5 321.5,56.3 C321.3,55.7 321.1,55 320.9,54.4 C320.7,54 320.6,53.9 320.5,53.5 C320.4,53.2 320.3,52.9 320.2,52.6 C319.5,50.1 319,47.5 318.5,44.9 C318.7,47.5 318.9,50.1 319.4,52.7 C319.5,53 319.5,53.4 319.6,53.7 C319.7,54 319.9,54.5 319.9,54.7 C320.1,55.3 320.2,55.9 320.3,56.5 C320.5,57.8 320.7,59.1 320.9,60.3 C321.2,62.9 321.6,65.5 321.8,68.1 C322,70.8 322.4,73.4 322.9,76 C325,86.4 328.4,96.5 332.5,106.2 C335.3,112.1 338.2,118 341.3,123.7 C341.3,123.7 341.3,123.7 341.3,123.7 Z" id="Path" fill="#00B8E0"></path>
                <path d="M292.8,65.8 C293.2,66.3 293.5,66.8 293.9,67.3 C294.2,67.8 294.6,68.2 295,68.5 C295.8,69.2 296.6,69.7 297.6,70 C297.9,70.1 298.1,70.1 298.4,70.2 L299.2,70.3 L301,70.5 C302.2,70.7 303.4,70.8 304.6,70.9 C305.2,71 305.8,71 306.5,71.2 C307.1,71.3 307.9,71.6 308.5,72.1 C309.5,73.1 310.1,74.2 310.7,75.3 C311.3,76.4 311.7,77.6 312.1,78.7 C312.5,79.9 312.9,81 313.2,82.2 C314.5,86.9 315.3,91.7 315.8,96.6 C316,99 316.2,101.4 316.3,103.8 C316.4,106.2 316.4,108.6 316.7,111 C316.1,109.9 315.7,108.7 315.3,107.6 C315,106.4 314.7,105.2 314.4,104 C313.9,101.6 313.5,99.2 313.2,96.9 L312.2,89.8 C311.9,87.4 311.6,85.1 311.1,82.7 C310.7,80.4 310.1,78.1 309.2,75.9 C308.7,74.9 308.1,73.8 307.4,73.1 C306.8,72.5 305.6,72.4 304.4,72.4 C303.2,72.4 302,72.4 300.8,72.4 C300.2,72.4 299.6,72.3 299,72.3 C298.3,72.2 297.7,72.1 297,71.9 C295.7,71.5 294.5,70.6 293.8,69.4 C292.9,68.3 292.7,67 292.8,65.8 Z" id="Path" fill="#00B8E0"></path>
                <path d="M299,51.1 C299,51.1 306.3,53.6 308.9,55.7 C308.9,55.7 307.5,61.6 305.6,64.6 C303.7,67.6 302.4,71.9 298.8,72.9 L300.7,74.1 C300.7,74.1 305.5,72.4 310.6,57.1 C310.7,56.7 315.6,50.9 317.3,47.1 C319,43.3 318.9,41.3 318.9,41.3 L316.5,37.2 L316.6,38.4 C316.6,38.4 318.1,39.2 317.2,41.8 C316.3,44.4 314.9,49.3 310.5,53.3 L300,49.6 L299,51.1 Z" id="Path" fill="#FFFFFF"></path>
                <path d="M365.2,169.8 C359.7,166.4 343.1,161.1 315.2,156.3 C279,150.1 237.9,165.4 228.3,169.3 C210.9,176.5 199.8,176.1 199.8,176.1 C199.8,176.1 188.7,176.5 171.3,169.3 C161.8,165.4 124.2,150.1 88,156.3 C60.1,161.1 43.5,166.4 38,169.8 C36.5,170.7 34.3,172.4 34.3,174.1 C34.4,179.3 34.2,189.5 36.1,189.9 C37.7,190.2 40,191.8 42.1,194.7 C44.5,194.4 47.1,194.3 49.7,194.2 C49.5,188.6 50.1,184.4 51,181.2 C52.9,174.1 58.1,171.5 74.3,166.1 C93.2,159.8 132.9,157.8 160.6,172.1 C188.6,186.6 174.8,217.7 174.8,217.7 C174.8,217.7 168.9,235.7 153.7,248.7 C147,254.4 136.6,258.7 127.8,259.9 C111.4,262.1 93.9,261.3 79.8,253.7 L69.6,253.7 C72.8,256.3 76.5,258.6 80.7,260.2 C109.2,271 139.6,265.5 153.3,255.8 C185.2,233.1 185.2,201.9 186.6,198 C188,194.1 190.9,191.8 193.6,190.5 C197.4,188.6 201.8,188.6 205.6,190.5 C208.3,191.9 211.2,194.2 212.6,198 C214,201.9 214.1,233.1 245.9,255.8 C259.6,265.6 290,271.1 318.5,260.2 C347,249.4 352.1,210 353.4,203.7 C355.1,195.3 360.4,190.6 363.2,190 C365.2,189.6 368.5,179.5 368.6,174.2 C368.9,172.4 366.7,170.7 365.2,169.8 Z M342.7,226 C330.9,258.7 299.7,263.6 271.7,259.8 C262.9,258.6 252.5,254.3 245.8,248.6 C230.6,235.6 224.7,217.6 224.7,217.6 C224.7,217.6 211,186.4 238.9,172 C266.6,157.7 309.9,159.8 328.7,166 C345,171.4 346.6,174 348.5,181.1 C350.7,188.9 351.5,201.7 342.7,226 Z" id="Shape" fill="#FFFFFF"></path>
                <path d="M58,157.4 C58.4,155.6 58.7,153.8 58.8,152 C59,150.2 59.1,148.4 59.1,146.6 C59.2,143 59.2,139.4 59.2,135.7 C59.2,128.4 58.9,121.1 59.1,113.8 C59.2,110.1 59.3,106.4 59.7,102.7 C60.1,99 60.7,95.2 62.1,91.5 C62.8,89.6 63.7,87.8 65.1,86.1 C65.8,85.3 66.7,84.5 67.6,83.9 C68.1,83.6 68.5,83.4 69,83.1 C69.5,82.9 70,82.7 70.4,82.4 C72.4,81.6 74.5,81.2 76.6,81.3 C78.7,81.3 80.7,81.7 82.6,82.4 C86.4,83.7 89.7,85.8 92.7,88.1 C95.7,90.4 98.4,93 101,95.6 C103.6,98.3 106,101.1 108.4,103.9 C110.8,106.8 112.9,109.7 115.1,112.6 C117.3,115.5 119.5,118.3 122,120.9 C124.5,123.4 127.2,125.8 130.4,127.3 C133.5,128.9 137,129.7 140.5,129.6 C144,129.6 147.5,128.8 150.9,127.6 C154.2,126.4 157.4,124.6 160.3,122.6 C163.2,120.6 166,118.2 169,115.9 C172,113.6 175.2,111.5 178.7,109.9 C182.2,108.3 186,107.1 189.8,106.5 C193.6,105.8 197.7,105.6 201.7,106.3 C205.7,106.9 209.5,108.4 212.9,110.6 C216.2,112.8 219.1,115.5 221.5,118.6 C223.9,121.6 225.8,124.9 227.5,128.2 C227.9,129 228.4,129.8 228.8,130.5 L228.9,130.7 C228.9,130.7 228.9,130.7 228.9,130.7 C228.9,130.7 228.9,130.7 229,130.8 C229,130.8 229.1,130.8 229.1,130.9 C229.3,131 229.6,131.1 230,131.2 C231.5,131.5 233.3,131.5 235.1,131.5 C238.7,131.5 242.3,131.2 246,131.1 C253.3,130.8 260.7,130.9 268,131.8 C275.3,132.7 282.6,134.3 289.5,137 C296.4,139.6 302.9,143.3 308.6,147.8 C302.6,143.7 295.9,140.6 289,138.4 C282.1,136.2 275,134.9 267.8,134.3 C264.2,134 260.6,133.9 257,133.9 C253.4,133.9 249.8,134 246.1,134.1 L235.1,134.6 C233.2,134.6 231.4,134.7 229.3,134.4 C228.8,134.3 228.2,134.2 227.6,133.9 L227.1,133.6 C226.9,133.5 226.8,133.4 226.6,133.2 C226.4,133 226.3,132.9 226.2,132.7 L226,132.4 C225.4,131.5 225,130.8 224.5,130 C222.7,126.9 220.7,124 218.3,121.5 C215.9,119 213.2,116.9 210.3,115.3 C204.4,112.2 197.7,111.8 191,113 C187.6,113.6 184.3,114.5 181.1,115.7 C177.9,116.9 174.8,118.4 171.7,120.2 C168.6,121.9 165.4,123.8 162.1,125.6 C158.8,127.3 155.3,128.9 151.7,129.9 C149.9,130.5 148.1,130.9 146.3,131.3 C144.5,131.7 142.6,131.9 140.7,131.9 C136.9,131.9 133.1,131.1 129.7,129.5 C126.3,127.9 123.2,125.5 120.5,123 C117.8,120.4 115.4,117.6 113,114.8 C110.6,112 108.4,109.2 105.9,106.5 C103.5,103.8 100.9,101.2 98.4,98.7 C95.8,96.2 93.1,93.9 90.3,91.8 C87.5,89.7 84.5,87.9 81.4,86.9 C78.3,85.9 75.1,85.7 72.2,86.9 C71.9,87.1 71.5,87.2 71.1,87.4 C70.8,87.6 70.4,87.8 70.1,88 C69.5,88.4 69,88.8 68.5,89.4 C67.5,90.5 66.8,91.9 66.1,93.5 C64.9,96.6 64.2,100.1 63.7,103.6 C63.2,107.1 62.9,110.7 62.7,114.3 C62.3,121.5 62.2,128.8 61.9,136.1 C61.7,139.8 61.5,143.4 60.9,147.1 C60.5,150.4 59.7,154.1 58,157.4 Z" id="Path" fill="#00B8E0"></path>
                <path d="M272.5,94.2 C275.2,94.9 277.7,96.4 279.8,98.3 C281.9,100.2 283.6,102.6 285.1,105 C286.6,107.4 287.7,110 289,112.4 C290.3,114.9 291.3,117.5 292.5,119.9 C294.8,124.8 297.3,129.5 300.4,133.8 C303.5,138 307.1,141.8 312.2,144.3 C309.4,144.3 306.5,143.4 304,141.9 C301.5,140.4 299.3,138.5 297.4,136.3 C295.5,134.1 293.9,131.7 292.6,129.2 C291.2,126.7 290,124.2 289,121.6 C287.9,119 287,116.4 286,113.9 C284.9,111.3 284,108.8 282.9,106.3 C281.8,103.9 280.5,101.5 278.9,99.4 C277,97.3 274.9,95.5 272.5,94.2 Z" id="Path" fill="#00B8E0"></path>
                <path d="M76.4,57.7 C76.4,58.2 76.4,58.7 76.3,59.2 C76.1,59.8 75.9,60.4 75.7,61 C75.3,62.3 74.8,63.4 74.7,65 C74.7,65.2 74.7,65.6 74.7,65.7 C74.7,65.8 74.7,65.9 74.7,66.1 C74.7,66.4 74.7,66.7 74.7,67 C74.7,67.6 74.6,68.3 74.5,68.9 C74.2,71.4 73.8,74 72.9,76.2 C71.8,78.8 71.3,81.2 69.6,82.4 C68.8,83 67.7,83.4 66.7,83.5 C65.6,83.6 64.3,83.5 63,83.4 C61.7,83.3 60.5,83.2 59.3,82.9 L55.5,82.1 C53,81.6 50.4,81 47.9,80.4 C45.4,79.8 42.8,79.2 40.5,78.1 L40.3,78.3 C42.4,80 44.9,80.9 47.4,81.9 C49.9,82.8 52.4,83.6 54.9,84.3 C56.2,84.7 57.4,85 58.7,85.3 C60,85.6 61.4,85.8 62.7,86 C64,86.1 65.4,86.2 66.8,86.1 C68.4,86 69.8,85.4 71.1,84.4 C72.3,83.4 73.2,82 73.7,80.7 C74.3,79.4 74.5,78.1 75,77 C75.9,74.3 76.2,71.7 76.4,69 C76.4,68.3 76.5,67.7 76.5,67 C76.5,66.7 76.5,66.3 76.5,65.9 C76.5,65.7 76.5,65.5 76.4,65.3 C76.4,65 76.4,65.2 76.4,65 C76.4,64 76.7,62.6 76.9,61.4 C77,60.7 77.1,60.1 77.2,59.4 C77.3,58.8 77.2,58.1 77.1,57.5 L76.4,57.7 Z" id="Path" fill="#00B8E0"></path>
                <path d="M40.5,48.6 L40.4,51.2 L41.5,52.2 C42.2,56.9 44.3,59.1 45.7,60.1 C47.2,61.1 48.7,61.3 52.7,60.8 C56.7,60.3 58,58.2 58.5,57.2 C58.9,56.4 60.4,51.4 60.7,50.5 C61,49.7 61.8,49.6 62.9,49.7 C64,49.9 64.2,53 66.4,55.8 C67.5,57.2 69.7,58.7 73.2,58.4 C76.7,58.1 78.3,57.6 79.6,54.7 C80.9,51.8 80.2,49.1 80.4,48.5 C80.5,47.9 81.5,46.3 81.5,46.3 L81.2,44.1 C81.2,44.1 78.8,42.6 73.9,43.1 C69,43.6 66.3,45 65.4,45.6 C64.5,46.2 62.9,47.4 61.7,47.6 C60.5,47.7 57.7,46.1 55.8,45.8 C53.9,45.5 50.3,45.5 49,45.6 C47.7,45.7 43.1,47.4 43.1,47.4 C42.3,47.8 40.5,48.6 40.5,48.6 Z M64.4,48.1 C64.7,47.1 67,45.5 69.3,44.7 C71.6,43.9 75.9,43.7 77.3,43.8 C78.7,43.9 79.4,44.8 79.7,46.1 C80,47.4 79.8,51.4 79.8,51.4 C79.5,53.3 79.2,54.8 77.7,56.2 C76.6,57.1 70.9,59.4 67.8,56 C64.8,52.6 64.1,49.1 64.4,48.1 Z M43.9,47.8 C44.4,47.3 49.3,46.1 52.9,46.3 C56.5,46.4 58.7,48 58.9,48.8 C59.5,50.6 58.8,53.8 57.5,56.5 C56.5,58.6 53.8,59.6 52.8,59.8 C51.8,60 48.1,61.3 45.4,58.9 C42.7,56.5 42.4,51.8 42.3,50.4 C42.3,48.8 43.4,48.3 43.9,47.8 Z" id="Shape" fill="#FFFFFF"></path>
                <polygon id="Path" fill="url(#radialGradient-2)" points="39.4 4.1 41.5 45.1 79.7 45.9 41.6 47.2 41.5 82.9 39.5 47.2 0 46.3 39.5 45.1"></polygon>
            </g>
        </g>
    </g>
</svg>